<mxfile host="app.diagrams.net" agent="Mozilla/5.0 (Windows NT 10.0; Win64; x64) AppleWebKit/537.36 (KHTML, like Gecko) Chrome/137.0.0.0 Safari/537.36" version="27.1.6">
  <diagram name="Page-1" id="gDBkePVNHY7PZ-UuN002">
    <mxGraphModel dx="1085" dy="934" grid="1" gridSize="10" guides="1" tooltips="1" connect="1" arrows="1" fold="1" page="1" pageScale="1" pageWidth="827" pageHeight="1169" math="0" shadow="0">
      <root>
        <mxCell id="0" />
        <mxCell id="1" parent="0" />
        <mxCell id="9kXvz84i0a--ftJrGxLi-2" value="&lt;font style=&quot;font-size: 16px;&quot;&gt;&lt;b&gt;Main menu&amp;nbsp;&lt;/b&gt;&lt;/font&gt;&lt;div&gt;door is lock&amp;nbsp;&lt;/div&gt;&lt;div&gt;password or card&lt;/div&gt;" style="ellipse;whiteSpace=wrap;html=1;" parent="1" vertex="1">
          <mxGeometry x="291" y="60" width="149" height="110" as="geometry" />
        </mxCell>
        <mxCell id="9kXvz84i0a--ftJrGxLi-3" value="check:password or rfid card&amp;nbsp;&lt;div&gt;fail_count++&lt;/div&gt;" style="rhombus;whiteSpace=wrap;html=1;" parent="1" vertex="1">
          <mxGeometry x="240.5" y="200" width="250" height="70" as="geometry" />
        </mxCell>
        <mxCell id="9kXvz84i0a--ftJrGxLi-5" value="&lt;div&gt;Door is unlock&lt;span style=&quot;background-color: transparent; color: light-dark(rgb(0, 0, 0), rgb(255, 255, 255));&quot;&gt;&amp;nbsp;&lt;/span&gt;&lt;/div&gt;&lt;div&gt;&lt;span style=&quot;background-color: transparent; color: light-dark(rgb(0, 0, 0), rgb(255, 255, 255));&quot;&gt;[1] Enter Setting&lt;/span&gt;&lt;/div&gt;&lt;div&gt;[2] Done&amp;nbsp;&lt;/div&gt;" style="rounded=0;whiteSpace=wrap;html=1;" parent="1" vertex="1">
          <mxGeometry x="282.75" y="330" width="164.5" height="100" as="geometry" />
        </mxCell>
        <mxCell id="9kXvz84i0a--ftJrGxLi-7" style="edgeStyle=orthogonalEdgeStyle;rounded=0;orthogonalLoop=1;jettySize=auto;html=1;exitX=0.5;exitY=1;exitDx=0;exitDy=0;" parent="1" source="9kXvz84i0a--ftJrGxLi-3" target="9kXvz84i0a--ftJrGxLi-3" edge="1">
          <mxGeometry relative="1" as="geometry" />
        </mxCell>
        <mxCell id="9kXvz84i0a--ftJrGxLi-8" value="" style="endArrow=classic;html=1;rounded=0;exitX=0.5;exitY=1;exitDx=0;exitDy=0;" parent="1" source="9kXvz84i0a--ftJrGxLi-2" target="9kXvz84i0a--ftJrGxLi-3" edge="1">
          <mxGeometry width="50" height="50" relative="1" as="geometry">
            <mxPoint x="370" y="190" as="sourcePoint" />
            <mxPoint x="425.5" y="150" as="targetPoint" />
          </mxGeometry>
        </mxCell>
        <mxCell id="9kXvz84i0a--ftJrGxLi-9" value="" style="endArrow=classic;html=1;rounded=0;exitX=0.5;exitY=1;exitDx=0;exitDy=0;" parent="1" source="9kXvz84i0a--ftJrGxLi-3" edge="1">
          <mxGeometry width="50" height="50" relative="1" as="geometry">
            <mxPoint x="420" y="350" as="sourcePoint" />
            <mxPoint x="366" y="320" as="targetPoint" />
          </mxGeometry>
        </mxCell>
        <mxCell id="9kXvz84i0a--ftJrGxLi-10" value="yes" style="text;html=1;align=center;verticalAlign=middle;resizable=0;points=[];autosize=1;strokeColor=none;fillColor=none;" parent="1" vertex="1">
          <mxGeometry x="374" y="278" width="40" height="30" as="geometry" />
        </mxCell>
        <mxCell id="9kXvz84i0a--ftJrGxLi-12" value="no" style="text;html=1;align=center;verticalAlign=middle;resizable=0;points=[];autosize=1;strokeColor=none;fillColor=none;" parent="1" vertex="1">
          <mxGeometry x="480" y="232.5" width="40" height="30" as="geometry" />
        </mxCell>
        <mxCell id="9kXvz84i0a--ftJrGxLi-14" value="" style="endArrow=classic;html=1;rounded=0;exitX=0.5;exitY=1;exitDx=0;exitDy=0;entryX=0.5;entryY=0;entryDx=0;entryDy=0;" parent="1" source="9kXvz84i0a--ftJrGxLi-5" target="9kXvz84i0a--ftJrGxLi-21" edge="1">
          <mxGeometry width="50" height="50" relative="1" as="geometry">
            <mxPoint x="369" y="410" as="sourcePoint" />
            <mxPoint x="366" y="450" as="targetPoint" />
          </mxGeometry>
        </mxCell>
        <mxCell id="9kXvz84i0a--ftJrGxLi-15" value="" style="endArrow=classic;html=1;rounded=0;exitX=0;exitY=0.5;exitDx=0;exitDy=0;" parent="1" edge="1">
          <mxGeometry width="50" height="50" relative="1" as="geometry">
            <mxPoint x="283.75" y="377.5" as="sourcePoint" />
            <mxPoint x="291" y="117.5" as="targetPoint" />
            <Array as="points">
              <mxPoint x="200" y="380" />
              <mxPoint x="80" y="380" />
              <mxPoint x="81" y="237.5" />
              <mxPoint x="81" y="117.5" />
            </Array>
          </mxGeometry>
        </mxCell>
        <mxCell id="9kXvz84i0a--ftJrGxLi-16" value="1. Locking door&lt;div&gt;or wait over 30 second&amp;nbsp;&lt;/div&gt;" style="text;html=1;align=center;verticalAlign=middle;resizable=0;points=[];autosize=1;strokeColor=none;fillColor=none;" parent="1" vertex="1">
          <mxGeometry x="140" y="335" width="150" height="40" as="geometry" />
        </mxCell>
        <mxCell id="9kXvz84i0a--ftJrGxLi-21" value="check:master passpword or frid&amp;nbsp;&amp;nbsp;" style="rhombus;whiteSpace=wrap;html=1;" parent="1" vertex="1">
          <mxGeometry x="223.25" y="490" width="284.5" height="80" as="geometry" />
        </mxCell>
        <mxCell id="9kXvz84i0a--ftJrGxLi-22" value="" style="endArrow=classic;html=1;rounded=0;" parent="1" edge="1">
          <mxGeometry width="50" height="50" relative="1" as="geometry">
            <mxPoint x="507.75" y="530" as="sourcePoint" />
            <mxPoint x="560" y="480" as="targetPoint" />
            <Array as="points">
              <mxPoint x="560" y="530" />
            </Array>
          </mxGeometry>
        </mxCell>
        <mxCell id="9kXvz84i0a--ftJrGxLi-23" value="retry" style="rounded=0;whiteSpace=wrap;html=1;" parent="1" vertex="1">
          <mxGeometry x="520" y="470" width="80" height="40" as="geometry" />
        </mxCell>
        <mxCell id="9kXvz84i0a--ftJrGxLi-24" value="no" style="text;html=1;align=center;verticalAlign=middle;resizable=0;points=[];autosize=1;strokeColor=none;fillColor=none;" parent="1" vertex="1">
          <mxGeometry x="520" y="530" width="40" height="30" as="geometry" />
        </mxCell>
        <mxCell id="9kXvz84i0a--ftJrGxLi-26" value="" style="endArrow=classic;html=1;rounded=0;" parent="1" edge="1">
          <mxGeometry width="50" height="50" relative="1" as="geometry">
            <mxPoint x="560" y="470" as="sourcePoint" />
            <mxPoint x="370" y="450" as="targetPoint" />
            <Array as="points">
              <mxPoint x="560" y="450" />
            </Array>
          </mxGeometry>
        </mxCell>
        <mxCell id="9kXvz84i0a--ftJrGxLi-27" value="retry" style="rounded=0;whiteSpace=wrap;html=1;" parent="1" vertex="1">
          <mxGeometry x="560" y="100" width="80" height="40" as="geometry" />
        </mxCell>
        <mxCell id="9kXvz84i0a--ftJrGxLi-28" value="" style="endArrow=classic;html=1;rounded=0;exitX=0.5;exitY=0;exitDx=0;exitDy=0;entryX=0.5;entryY=1;entryDx=0;entryDy=0;" parent="1" source="9kXvz84i0a--ftJrGxLi-36" target="9kXvz84i0a--ftJrGxLi-27" edge="1">
          <mxGeometry width="50" height="50" relative="1" as="geometry">
            <mxPoint x="594.9999999999998" y="207.4999999999999" as="sourcePoint" />
            <mxPoint x="600" y="180" as="targetPoint" />
            <Array as="points" />
          </mxGeometry>
        </mxCell>
        <mxCell id="9kXvz84i0a--ftJrGxLi-30" value="" style="endArrow=classic;html=1;rounded=0;entryX=1;entryY=0.545;entryDx=0;entryDy=0;entryPerimeter=0;exitX=0;exitY=0.5;exitDx=0;exitDy=0;" parent="1" source="9kXvz84i0a--ftJrGxLi-27" target="9kXvz84i0a--ftJrGxLi-2" edge="1">
          <mxGeometry width="50" height="50" relative="1" as="geometry">
            <mxPoint x="547.75" y="160" as="sourcePoint" />
            <mxPoint x="597.75" y="110" as="targetPoint" />
            <Array as="points">
              <mxPoint x="550" y="120" />
            </Array>
          </mxGeometry>
        </mxCell>
        <mxCell id="9kXvz84i0a--ftJrGxLi-31" value="&lt;font style=&quot;font-size: 17px;&quot;&gt;&lt;b&gt;Menu setting&lt;/b&gt;&lt;/font&gt;:&lt;div&gt;&lt;span style=&quot;background-color: transparent; color: light-dark(rgb(0, 0, 0), rgb(255, 255, 255));&quot;&gt;[1] Change PIN&amp;nbsp; &amp;nbsp;&lt;/span&gt;&lt;div&gt;&lt;div&gt;&amp;nbsp;&amp;nbsp;&lt;span style=&quot;background-color: transparent; color: light-dark(rgb(0, 0, 0), rgb(255, 255, 255));&quot;&gt;[2]&amp;nbsp; Manage Cards&amp;nbsp;&lt;/span&gt;&lt;span style=&quot;background-color: transparent; color: light-dark(rgb(0, 0, 0), rgb(255, 255, 255));&quot;&gt;&amp;nbsp;&amp;nbsp;&lt;/span&gt;&lt;/div&gt;&lt;div&gt;&lt;span style=&quot;background-color: transparent; color: light-dark(rgb(0, 0, 0), rgb(255, 255, 255));&quot;&gt;&amp;nbsp; &amp;nbsp;[3] More settings&amp;nbsp;&lt;/span&gt;&lt;/div&gt;&lt;div&gt;&lt;span style=&quot;background-color: transparent; color: light-dark(rgb(0, 0, 0), rgb(255, 255, 255));&quot;&gt;[4]&amp;nbsp; Done&amp;nbsp; &amp;nbsp; &amp;nbsp;&lt;/span&gt;&lt;/div&gt;&lt;/div&gt;&lt;/div&gt;" style="rounded=0;whiteSpace=wrap;html=1;" parent="1" vertex="1">
          <mxGeometry x="285.5" y="608" width="160" height="140" as="geometry" />
        </mxCell>
        <mxCell id="9kXvz84i0a--ftJrGxLi-32" value="" style="endArrow=classic;html=1;rounded=0;entryX=0.5;entryY=0;entryDx=0;entryDy=0;exitX=0.5;exitY=1;exitDx=0;exitDy=0;" parent="1" target="9kXvz84i0a--ftJrGxLi-31" edge="1" source="9kXvz84i0a--ftJrGxLi-21">
          <mxGeometry width="50" height="50" relative="1" as="geometry">
            <mxPoint x="367.96" y="570" as="sourcePoint" />
            <mxPoint x="362.04" y="600.56" as="targetPoint" />
          </mxGeometry>
        </mxCell>
        <mxCell id="9kXvz84i0a--ftJrGxLi-36" value="if fail_count&amp;gt;5" style="rhombus;whiteSpace=wrap;html=1;" parent="1" vertex="1">
          <mxGeometry x="530" y="207.5" width="140" height="55" as="geometry" />
        </mxCell>
        <mxCell id="9kXvz84i0a--ftJrGxLi-37" value="" style="endArrow=classic;html=1;rounded=0;entryX=0;entryY=0.5;entryDx=0;entryDy=0;" parent="1" target="9kXvz84i0a--ftJrGxLi-36" edge="1">
          <mxGeometry width="50" height="50" relative="1" as="geometry">
            <mxPoint x="490" y="235" as="sourcePoint" />
            <mxPoint x="560" y="310" as="targetPoint" />
          </mxGeometry>
        </mxCell>
        <mxCell id="9kXvz84i0a--ftJrGxLi-38" value="no" style="text;html=1;align=center;verticalAlign=middle;resizable=0;points=[];autosize=1;strokeColor=none;fillColor=none;" parent="1" vertex="1">
          <mxGeometry x="600" y="168" width="40" height="30" as="geometry" />
        </mxCell>
        <mxCell id="9kXvz84i0a--ftJrGxLi-39" value="yes" style="text;html=1;align=center;verticalAlign=middle;resizable=0;points=[];autosize=1;strokeColor=none;fillColor=none;" parent="1" vertex="1">
          <mxGeometry x="670" y="232.5" width="40" height="30" as="geometry" />
        </mxCell>
        <mxCell id="9kXvz84i0a--ftJrGxLi-40" value="locked system 5 minutes" style="rounded=0;whiteSpace=wrap;html=1;" parent="1" vertex="1">
          <mxGeometry x="680" y="153" width="90" height="47" as="geometry" />
        </mxCell>
        <mxCell id="9kXvz84i0a--ftJrGxLi-41" value="" style="endArrow=classic;html=1;rounded=0;exitX=0.024;exitY=0.077;exitDx=0;exitDy=0;exitPerimeter=0;entryX=0.5;entryY=1;entryDx=0;entryDy=0;" parent="1" source="9kXvz84i0a--ftJrGxLi-39" target="9kXvz84i0a--ftJrGxLi-40" edge="1">
          <mxGeometry width="50" height="50" relative="1" as="geometry">
            <mxPoint x="510" y="300" as="sourcePoint" />
            <mxPoint x="560" y="250" as="targetPoint" />
            <Array as="points">
              <mxPoint x="725" y="235" />
            </Array>
          </mxGeometry>
        </mxCell>
        <mxCell id="9kXvz84i0a--ftJrGxLi-42" value="" style="endArrow=classic;html=1;rounded=0;exitX=0.5;exitY=0;exitDx=0;exitDy=0;entryX=1;entryY=0.5;entryDx=0;entryDy=0;" parent="1" source="9kXvz84i0a--ftJrGxLi-40" target="9kXvz84i0a--ftJrGxLi-27" edge="1">
          <mxGeometry width="50" height="50" relative="1" as="geometry">
            <mxPoint x="590" y="160" as="sourcePoint" />
            <mxPoint x="640" y="110" as="targetPoint" />
            <Array as="points">
              <mxPoint x="725" y="120" />
            </Array>
          </mxGeometry>
        </mxCell>
        <mxCell id="9kXvz84i0a--ftJrGxLi-43" value="" style="endArrow=classic;html=1;rounded=0;entryX=0.5;entryY=0;entryDx=0;entryDy=0;exitX=0.487;exitY=1.003;exitDx=0;exitDy=0;exitPerimeter=0;" parent="1" source="9kXvz84i0a--ftJrGxLi-31" target="9kXvz84i0a--ftJrGxLi-46" edge="1">
          <mxGeometry width="50" height="50" relative="1" as="geometry">
            <mxPoint x="360" y="750" as="sourcePoint" />
            <mxPoint x="160" y="800" as="targetPoint" />
          </mxGeometry>
        </mxCell>
        <mxCell id="9kXvz84i0a--ftJrGxLi-44" value="" style="endArrow=classic;html=1;rounded=0;entryX=0.458;entryY=0;entryDx=0;entryDy=0;entryPerimeter=0;exitX=0.5;exitY=1;exitDx=0;exitDy=0;" parent="1" target="9kXvz84i0a--ftJrGxLi-48" edge="1" source="9kXvz84i0a--ftJrGxLi-31">
          <mxGeometry width="50" height="50" relative="1" as="geometry">
            <mxPoint x="370" y="750" as="sourcePoint" />
            <mxPoint x="360" y="800" as="targetPoint" />
            <Array as="points" />
          </mxGeometry>
        </mxCell>
        <mxCell id="9kXvz84i0a--ftJrGxLi-45" value="" style="endArrow=classic;html=1;rounded=0;entryX=0.459;entryY=-0.057;entryDx=0;entryDy=0;entryPerimeter=0;exitX=0.5;exitY=1;exitDx=0;exitDy=0;" parent="1" target="9kXvz84i0a--ftJrGxLi-63" edge="1" source="9kXvz84i0a--ftJrGxLi-31">
          <mxGeometry width="50" height="50" relative="1" as="geometry">
            <mxPoint x="360" y="740" as="sourcePoint" />
            <mxPoint x="560" y="800" as="targetPoint" />
          </mxGeometry>
        </mxCell>
        <mxCell id="9kXvz84i0a--ftJrGxLi-46" value="&lt;div&gt;&lt;br&gt;&lt;/div&gt;&amp;nbsp;Change PIN&lt;span style=&quot;background-color: transparent; color: light-dark(rgb(0, 0, 0), rgb(255, 255, 255));&quot;&gt;&amp;nbsp;&amp;nbsp;&lt;/span&gt;&lt;div&gt;&lt;span style=&quot;background-color: transparent; color: light-dark(rgb(0, 0, 0), rgb(255, 255, 255));&quot;&gt;[1]Back&amp;nbsp;&lt;/span&gt;&lt;/div&gt;&lt;div&gt;&lt;span style=&quot;background-color: transparent; color: light-dark(rgb(0, 0, 0), rgb(255, 255, 255));&quot;&gt;[2]Done&lt;/span&gt;&lt;/div&gt;&lt;div&gt;&lt;span style=&quot;background-color: transparent; color: light-dark(rgb(0, 0, 0), rgb(255, 255, 255));&quot;&gt;&lt;br&gt;&lt;/span&gt;&lt;/div&gt;" style="rounded=0;whiteSpace=wrap;html=1;" parent="1" vertex="1">
          <mxGeometry x="120" y="810" width="120" height="70" as="geometry" />
        </mxCell>
        <mxCell id="9kXvz84i0a--ftJrGxLi-47" value="&lt;span style=&quot;text-wrap-mode: wrap;&quot;&gt;1&lt;/span&gt;" style="text;html=1;align=center;verticalAlign=middle;resizable=0;points=[];autosize=1;strokeColor=none;fillColor=none;" parent="1" vertex="1">
          <mxGeometry x="225" y="748" width="30" height="30" as="geometry" />
        </mxCell>
        <mxCell id="9kXvz84i0a--ftJrGxLi-48" value="&amp;nbsp;&lt;div&gt;&lt;br&gt;&lt;/div&gt;&lt;div&gt;&lt;br&gt;&lt;/div&gt;&lt;div&gt;Manage Cards&lt;div&gt;[1]Add cards&lt;/div&gt;&lt;div&gt;[2]Delete cards&lt;/div&gt;&lt;div&gt;[3]Back&amp;nbsp;&lt;/div&gt;&lt;div&gt;&amp;nbsp;&lt;/div&gt;&lt;div&gt;&lt;span style=&quot;background-color: transparent; color: light-dark(rgb(0, 0, 0), rgb(255, 255, 255));&quot;&gt;&amp;nbsp;&lt;/span&gt;&lt;/div&gt;&lt;div&gt;&lt;div&gt;&lt;br&gt;&lt;/div&gt;&lt;/div&gt;&lt;/div&gt;" style="rounded=0;whiteSpace=wrap;html=1;" parent="1" vertex="1">
          <mxGeometry x="315.5" y="810" width="130" height="80" as="geometry" />
        </mxCell>
        <mxCell id="9kXvz84i0a--ftJrGxLi-49" value="2" style="text;html=1;align=center;verticalAlign=middle;resizable=0;points=[];autosize=1;strokeColor=none;fillColor=none;" parent="1" vertex="1">
          <mxGeometry x="350.5" y="760" width="30" height="30" as="geometry" />
        </mxCell>
        <mxCell id="9kXvz84i0a--ftJrGxLi-50" value="" style="endArrow=classic;html=1;rounded=0;exitX=0.5;exitY=1;exitDx=0;exitDy=0;" parent="1" source="9kXvz84i0a--ftJrGxLi-48" edge="1">
          <mxGeometry width="50" height="50" relative="1" as="geometry">
            <mxPoint x="360" y="1000" as="sourcePoint" />
            <mxPoint x="440" y="960" as="targetPoint" />
          </mxGeometry>
        </mxCell>
        <mxCell id="9kXvz84i0a--ftJrGxLi-51" value="" style="endArrow=classic;html=1;rounded=0;exitX=0.5;exitY=1;exitDx=0;exitDy=0;" parent="1" source="9kXvz84i0a--ftJrGxLi-48" edge="1">
          <mxGeometry width="50" height="50" relative="1" as="geometry">
            <mxPoint x="300.5" y="980" as="sourcePoint" />
            <mxPoint x="280" y="960" as="targetPoint" />
          </mxGeometry>
        </mxCell>
        <mxCell id="9kXvz84i0a--ftJrGxLi-52" value="Add cards&amp;nbsp;&lt;div&gt;[1]Back&lt;/div&gt;&lt;div&gt;[2]Done&amp;nbsp;&lt;/div&gt;" style="rounded=0;whiteSpace=wrap;html=1;" parent="1" vertex="1">
          <mxGeometry x="225" y="960" width="120" height="60" as="geometry" />
        </mxCell>
        <mxCell id="9kXvz84i0a--ftJrGxLi-53" value="Delete cards&amp;nbsp;&lt;div&gt;[1]Back&amp;nbsp;&lt;/div&gt;&lt;div&gt;[2]Done&amp;nbsp;&lt;/div&gt;" style="rounded=0;whiteSpace=wrap;html=1;" parent="1" vertex="1">
          <mxGeometry x="387.75" y="960" width="120" height="60" as="geometry" />
        </mxCell>
        <mxCell id="9kXvz84i0a--ftJrGxLi-54" value="" style="endArrow=classic;html=1;rounded=0;exitX=-0.013;exitY=0.561;exitDx=0;exitDy=0;exitPerimeter=0;" parent="1" source="9kXvz84i0a--ftJrGxLi-31" edge="1">
          <mxGeometry width="50" height="50" relative="1" as="geometry">
            <mxPoint x="270" y="530" as="sourcePoint" />
            <mxPoint x="80" y="380" as="targetPoint" />
            <Array as="points">
              <mxPoint x="80" y="687" />
            </Array>
          </mxGeometry>
        </mxCell>
        <mxCell id="9kXvz84i0a--ftJrGxLi-55" value="4" style="text;html=1;align=center;verticalAlign=middle;resizable=0;points=[];autosize=1;strokeColor=none;fillColor=none;" parent="1" vertex="1">
          <mxGeometry x="175.5" y="670" width="30" height="30" as="geometry" />
        </mxCell>
        <mxCell id="9kXvz84i0a--ftJrGxLi-56" value="" style="endArrow=classic;html=1;rounded=0;exitX=0;exitY=0.5;exitDx=0;exitDy=0;" parent="1" edge="1">
          <mxGeometry width="50" height="50" relative="1" as="geometry">
            <mxPoint x="120" y="843" as="sourcePoint" />
            <mxPoint x="80" y="690" as="targetPoint" />
            <Array as="points">
              <mxPoint x="80" y="843" />
            </Array>
          </mxGeometry>
        </mxCell>
        <mxCell id="9kXvz84i0a--ftJrGxLi-57" value="2" style="edgeLabel;html=1;align=center;verticalAlign=middle;resizable=0;points=[];" parent="9kXvz84i0a--ftJrGxLi-56" vertex="1" connectable="0">
          <mxGeometry x="-0.7871" y="-3" relative="1" as="geometry">
            <mxPoint y="-10" as="offset" />
          </mxGeometry>
        </mxCell>
        <mxCell id="9kXvz84i0a--ftJrGxLi-58" value="" style="endArrow=classic;html=1;rounded=0;exitX=-0.02;exitY=0.635;exitDx=0;exitDy=0;exitPerimeter=0;" parent="1" source="9kXvz84i0a--ftJrGxLi-52" edge="1">
          <mxGeometry width="50" height="50" relative="1" as="geometry">
            <mxPoint x="270" y="940" as="sourcePoint" />
            <mxPoint x="80" y="840" as="targetPoint" />
            <Array as="points">
              <mxPoint x="80" y="1000" />
            </Array>
          </mxGeometry>
        </mxCell>
        <mxCell id="9kXvz84i0a--ftJrGxLi-59" value="2" style="text;html=1;align=center;verticalAlign=middle;resizable=0;points=[];autosize=1;strokeColor=none;fillColor=none;" parent="1" vertex="1">
          <mxGeometry x="145" y="968" width="30" height="30" as="geometry" />
        </mxCell>
        <mxCell id="9kXvz84i0a--ftJrGxLi-60" value="" style="endArrow=classic;html=1;rounded=0;" parent="1" edge="1">
          <mxGeometry width="50" height="50" relative="1" as="geometry">
            <mxPoint x="440" y="1020" as="sourcePoint" />
            <mxPoint x="80" y="1000" as="targetPoint" />
            <Array as="points">
              <mxPoint x="440" y="1078" />
              <mxPoint x="80" y="1078" />
            </Array>
          </mxGeometry>
        </mxCell>
        <mxCell id="2c3tBp1OusBaYSd9rH4_-1" value="2" style="edgeLabel;html=1;align=center;verticalAlign=middle;resizable=0;points=[];fontSize=12;" vertex="1" connectable="0" parent="9kXvz84i0a--ftJrGxLi-60">
          <mxGeometry x="-0.3992" y="-4" relative="1" as="geometry">
            <mxPoint x="77" y="-24" as="offset" />
          </mxGeometry>
        </mxCell>
        <mxCell id="9kXvz84i0a--ftJrGxLi-63" value="More setting&amp;nbsp;&lt;div&gt;[1] Enable/disable dual auth&amp;nbsp;&lt;/div&gt;&lt;div&gt;[2]&amp;nbsp;Reset to Factory Defaults&lt;/div&gt;&lt;div&gt;[3] Back&amp;nbsp;&lt;/div&gt;&lt;div&gt;[4] Done&amp;nbsp;&lt;/div&gt;" style="rounded=0;whiteSpace=wrap;html=1;" parent="1" vertex="1">
          <mxGeometry x="580" y="810" width="172.25" height="120" as="geometry" />
        </mxCell>
        <mxCell id="9kXvz84i0a--ftJrGxLi-64" value="" style="endArrow=classic;html=1;rounded=0;exitX=0.5;exitY=1;exitDx=0;exitDy=0;entryX=0.5;entryY=0;entryDx=0;entryDy=0;" parent="1" source="9kXvz84i0a--ftJrGxLi-63" edge="1" target="9kXvz84i0a--ftJrGxLi-66">
          <mxGeometry width="50" height="50" relative="1" as="geometry">
            <mxPoint x="590" y="830" as="sourcePoint" />
            <mxPoint x="620" y="980" as="targetPoint" />
          </mxGeometry>
        </mxCell>
        <mxCell id="9kXvz84i0a--ftJrGxLi-65" value="" style="endArrow=classic;html=1;rounded=0;exitX=0.5;exitY=1;exitDx=0;exitDy=0;entryX=0.5;entryY=0;entryDx=0;entryDy=0;" parent="1" source="9kXvz84i0a--ftJrGxLi-63" target="9kXvz84i0a--ftJrGxLi-70" edge="1">
          <mxGeometry width="50" height="50" relative="1" as="geometry">
            <mxPoint x="620" y="910" as="sourcePoint" />
            <mxPoint x="760" y="980" as="targetPoint" />
          </mxGeometry>
        </mxCell>
        <mxCell id="9kXvz84i0a--ftJrGxLi-66" value="Dual auth&amp;nbsp;&lt;div&gt;[1] Back&lt;/div&gt;&lt;div&gt;[2]Done&lt;/div&gt;" style="rounded=0;whiteSpace=wrap;html=1;" parent="1" vertex="1">
          <mxGeometry x="570" y="960" width="100" height="70" as="geometry" />
        </mxCell>
        <mxCell id="9kXvz84i0a--ftJrGxLi-68" value="" style="endArrow=classic;html=1;rounded=0;exitX=0.5;exitY=1;exitDx=0;exitDy=0;" parent="1" source="9kXvz84i0a--ftJrGxLi-66" edge="1">
          <mxGeometry width="50" height="50" relative="1" as="geometry">
            <mxPoint x="560" y="1000" as="sourcePoint" />
            <mxPoint x="440" y="1080" as="targetPoint" />
            <Array as="points">
              <mxPoint x="620" y="1080" />
            </Array>
          </mxGeometry>
        </mxCell>
        <mxCell id="9kXvz84i0a--ftJrGxLi-69" value="2" style="text;html=1;align=center;verticalAlign=middle;resizable=0;points=[];autosize=1;strokeColor=none;fillColor=none;" parent="1" vertex="1">
          <mxGeometry x="585" y="1058" width="30" height="30" as="geometry" />
        </mxCell>
        <mxCell id="9kXvz84i0a--ftJrGxLi-70" value="&lt;div&gt;Reset system&lt;/div&gt;&amp;nbsp; User confirm&amp;nbsp;" style="rounded=0;whiteSpace=wrap;html=1;" parent="1" vertex="1">
          <mxGeometry x="710" y="961" width="100" height="70" as="geometry" />
        </mxCell>
        <mxCell id="9kXvz84i0a--ftJrGxLi-71" value="" style="endArrow=classic;html=1;rounded=0;exitX=0.5;exitY=1;exitDx=0;exitDy=0;" parent="1" source="9kXvz84i0a--ftJrGxLi-70" edge="1">
          <mxGeometry width="50" height="50" relative="1" as="geometry">
            <mxPoint x="700" y="930" as="sourcePoint" />
            <mxPoint x="620" y="1080" as="targetPoint" />
            <Array as="points">
              <mxPoint x="760" y="1080" />
            </Array>
          </mxGeometry>
        </mxCell>
        <mxCell id="2c3tBp1OusBaYSd9rH4_-3" value="&lt;font style=&quot;font-size: 11px;&quot;&gt;1&lt;/font&gt;" style="text;html=1;align=center;verticalAlign=middle;resizable=0;points=[];autosize=1;strokeColor=none;fillColor=none;fontSize=16;" vertex="1" parent="1">
          <mxGeometry x="299" y="911" width="30" height="30" as="geometry" />
        </mxCell>
        <mxCell id="2c3tBp1OusBaYSd9rH4_-4" value="&lt;font style=&quot;font-size: 11px;&quot;&gt;2&lt;/font&gt;" style="text;html=1;align=center;verticalAlign=middle;resizable=0;points=[];autosize=1;strokeColor=none;fillColor=none;fontSize=16;" vertex="1" parent="1">
          <mxGeometry x="409" y="911" width="30" height="30" as="geometry" />
        </mxCell>
        <mxCell id="2c3tBp1OusBaYSd9rH4_-5" value="&lt;font style=&quot;font-size: 11px;&quot;&gt;1&lt;/font&gt;" style="text;html=1;align=center;verticalAlign=middle;resizable=0;points=[];autosize=1;strokeColor=none;fillColor=none;fontSize=16;" vertex="1" parent="1">
          <mxGeometry x="619" y="931" width="30" height="30" as="geometry" />
        </mxCell>
        <mxCell id="2c3tBp1OusBaYSd9rH4_-6" value="&lt;font style=&quot;font-size: 11px;&quot;&gt;2&lt;/font&gt;" style="text;html=1;align=center;verticalAlign=middle;resizable=0;points=[];autosize=1;strokeColor=none;fillColor=none;fontSize=16;" vertex="1" parent="1">
          <mxGeometry x="710" y="931" width="30" height="30" as="geometry" />
        </mxCell>
        <mxCell id="2c3tBp1OusBaYSd9rH4_-7" value="&lt;font style=&quot;font-size: 11px;&quot;&gt;3&lt;/font&gt;" style="text;html=1;align=center;verticalAlign=middle;resizable=0;points=[];autosize=1;strokeColor=none;fillColor=none;fontSize=16;" vertex="1" parent="1">
          <mxGeometry x="490.5" y="740" width="30" height="30" as="geometry" />
        </mxCell>
      </root>
    </mxGraphModel>
  </diagram>
</mxfile>
